<svg xmlns="http://www.w3.org/2000/svg" width="520" height="520" viewBox="0 0 520 520" fill="none">
<path d="M0 327C0 299.386 21.2808 277 47.532 277H175.868C202.12 277 223.4 299.386 223.4 327V362C223.4 389.614 202.12 412 175.868 412H47.532C21.2808 412 0 389.614 0 362V327Z" fill="#B1B1B1"/>
<path d="M383.108 40C383.108 17.9086 400.132 0 421.133 0H462.962C483.963 0 500.987 17.9086 500.987 40V176C500.987 198.091 483.963 216 462.962 216H421.133C400.132 216 383.108 198.091 383.108 176V40Z" fill="#B1B1B1"/>
<path d="M276.636 66C276.636 43.9086 293.661 26 314.662 26H345.082C366.083 26 383.108 43.9086 383.108 66V150C383.108 172.091 366.083 190 345.082 190H314.662C293.661 190 276.636 172.091 276.636 150V66Z" fill="#7F7F7F"/>
<path d="M158.757 255C158.757 199.772 201.318 155 253.821 155H424.936C477.438 155 520 199.772 520 255V420C520 475.228 477.438 520 424.936 520H253.821C201.318 520 158.757 475.228 158.757 420V255Z" fill="#B1B1B1"/>
<path d="M223.4 283C223.4 255.386 244.681 233 270.932 233C297.184 233 318.464 255.386 318.464 283C318.464 310.614 297.184 333 270.932 333C244.681 333 223.4 310.614 223.4 283Z" fill="black"/>
</svg>